<svg display="none"
	xmlns="http://www.w3.org/2000/svg">
	<symbol id="camera" viewBox="0 -103 480 480">
		<path d="m412.945312 0h-84.945312c-22.082031.0273438-39.972656 17.917969-40 40v40h16v16h-160v-15.0625l-144-18v210.125l144-18v-15.0625h160v32h144v-144h32v-64h-35.054688zm-284.945312 96v144.9375l-112 14v-173.875l112 14zm48 128h-32v-112h32zm48 0h-32v-112h32zm32 0h-16v-112h16zm48 0h-32v-112h32zm128 32h-112v-192h-16v-24c.015625-13.25 10.75-23.984375 24-24h75.054688l28.945312 57.886719zm16-176h16v32h-16zm0 0"/>
		<path d="m336 80h80v16h-80zm0 0"/>
		<path d="m96 176h16v-71.160156l-79.121094-8.792969-1.757812 15.90625 64.878906 7.207031zm0 0"/>
		<path d="m96 192h16v16h-16zm0 0"/>
		<path d="m384 112h16v128h-16zm0 0"/>
		<path d="m352 112h16v16h-16zm0 0"/>
		<path d="m352 144h16v16h-16zm0 0"/>
		<path d="m360 24h-32c-8.832031.007812-15.992188 7.167969-16 16v16h16v-16h32zm0 0"/>
		<path d="m376 24h16v16h-16zm0 0"/>
	</symbol>

	<symbol id="mirror" viewBox="0 0 512 512">
		<path d="m256 6.95c-73.623 0-133.52 70.017-133.52 156.08 0 35.79 10.072 69.451 29.127 97.346 17.665 25.86 42.122 44.622 69.261 53.263l-1.046 45.715c-.594 22.984-5.659 44.317-15.056 63.408a57.108 57.108 0 0 0 48.634 82.232q1.317.058 2.624.058a57.12 57.12 0 0 0 51.551-81.577 157.383 157.383 0 0 1 -15.391-63.943l-1.056-45.9c27.119-8.635 51.558-27.374 69.222-53.206 19.081-27.9 29.166-61.584 29.166-97.4.004-86.059-59.893-156.076-133.516-156.076zm40.739 421.672a45.092 45.092 0 1 1 -85.677 22.991 45.386 45.386 0 0 1 4.471-23.553c10.167-20.656 15.646-43.667 16.285-68.413l.982-42.895a115.718 115.718 0 0 0 46.4 0l.992 43.072a169.3 169.3 0 0 0 16.547 68.798zm53.71-174.965c-17.063 24.952-40.9 42.633-67.127 49.784a104.335 104.335 0 0 1 -54.757-.028c-26.2-7.175-50.011-24.863-67.049-49.806-17.434-25.522-27.036-57.69-27.036-90.577 0-79.446 54.514-144.08 121.52-144.08s121.52 64.634 121.52 144.08c0 32.911-9.614 65.096-27.071 90.627z"/>
		<path d="m256 41.14a93.431 93.431 0 0 0 -53.937 17.46 6 6 0 1 0 6.91 9.811 81.493 81.493 0 0 1 47.027-15.271c50.988 0 92.47 49.3 92.47 109.89s-41.482 109.88-92.47 109.88-92.47-49.292-92.47-109.88c0-28.571 9.2-55.644 25.9-76.232a6 6 0 0 0 -9.32-7.559c-18.428 22.719-28.577 52.476-28.577 83.791 0 67.205 46.865 121.88 104.47 121.88s104.47-54.675 104.47-121.88-46.868-121.89-104.473-121.89z"/>
		<path d="m277.488 108.066-28.1 28.09a6 6 0 0 0 8.484 8.488l28.1-28.09a6 6 0 1 0 -8.484-8.488z"/>
		<path d="m302.128 113-47.81 47.8a6 6 0 1 0 8.484 8.486l47.81-47.8a6 6 0 1 0 -8.484-8.486z"/>
		<path d="m278.958 165.727a6 6 0 1 0 8.484 8.486l28.1-28.09a6 6 0 1 0 -8.484-8.486z"/>
		<path d="m256 435.95a19.535 19.535 0 1 0 19.54 19.53 19.557 19.557 0 0 0 -19.54-19.53zm0 27.07a7.535 7.535 0 1 1 7.54-7.54 7.548 7.548 0 0 1 -7.54 7.54z"/>
	</symbol>

	<symbol id="eye" viewBox="0 0 137.218 137.218">
		<path d="M128.942,77.41l0.87-0.574c1.693-1.171,2.091-3.483,0.919-5.165c-1.182-1.697-3.507-2.08-5.165-0.925
			c-58.011,40.558-100.239,1.996-102.013,0.339c-1.497-1.401-3.856-1.33-5.25,0.158c-1.401,1.494-1.333,3.831,0.149,5.237
			c0.08,0.076,1.401,1.285,3.812,3.074l-7.431,12.255c-1.06,1.748-0.504,4.03,1.245,5.099c0.598,0.36,1.277,0.541,1.934,0.541
			c1.249,0,2.465-0.635,3.172-1.778l7.266-11.973c4.074,2.48,9.298,5.188,15.522,7.476l-3.581,11.972
			c-0.593,1.971,0.516,4.027,2.475,4.613l1.068,0.158c1.583,0,3.063-1.04,3.545-2.649l3.546-11.808
			c5.745,1.571,12.172,2.632,19.108,2.884v11.858c0,2.052,1.657,3.709,3.709,3.709c2.05,0,3.708-1.657,3.708-3.709V96.278
			c6.052-0.332,12.466-1.373,19.163-3.283l4.565,12.038c0.569,1.483,1.979,2.391,3.468,2.391l1.312-0.234
			c1.915-0.728,2.886-2.867,2.158-4.781l-4.445-11.729c6.098-2.265,12.401-5.247,18.911-9.203l6.009,8.021
			c0.732,0.969,1.849,1.489,2.965,1.489c0.778,0,1.555-0.236,2.222-0.745c1.644-1.23,1.976-3.555,0.752-5.192L128.942,77.41z"/>
		<path d="M136.987,48.4c0,0-1.479-2.148-4.603-5.015c-1.527-1.513-3.53-3.037-5.871-4.802c-2.385-1.587-5.093-3.469-8.23-5.062
			c-3.128-1.658-6.599-3.242-10.384-4.539c-3.76-1.483-7.901-2.353-12.215-3.136c-4.334-0.545-8.909-0.646-13.521-0.443
			c-4.628,0.391-9.254,0.396-13.917,0.962c-4.636,0.389-9.247,0.812-13.746,1.705c-2.253,0.392-4.487,0.706-6.662,1.188
			c-2.157,0.594-4.294,1.182-6.39,1.759c-4.196,1.043-8.15,2.381-11.799,3.951c-3.687,1.406-7.106,2.823-10.102,4.539
			c-3.032,1.601-5.811,2.969-8.2,4.342c-2.273,1.551-4.269,2.897-5.911,4.005c-3.201,2.241-5.031,3.524-5.031,3.524L0,52.647
			c0.186,0.588,0.818,0.897,1.412,0.7l0.119-0.044c0,0,2.073-0.706,5.72-1.945c1.784-0.625,3.962-1.389,6.446-2.268
			c2.526-0.722,5.451-1.357,8.557-2.131c3.064-0.884,6.511-1.406,10.148-1.847c1.781-0.259,3.619-0.539,5.501-0.817
			c1.9-0.203,3.856-0.252,5.812-0.395c1.966-0.123,3.95-0.245,5.96-0.369c2.023,0.011,4.074,0.028,6.13,0.047
			c4.083-0.121,8.264,0.236,12.413,0.6c8.292,0.582,16.336,3.31,23.89,4.571c7.588,1.261,14.882,1.614,21.316,1.967
			c6.457,0.184,12.017,0.307,16.094,0.107c4.057-0.147,6.55-0.399,6.55-0.399l0.612-0.235
			C137.249,49.79,137.393,48.989,136.987,48.4z"/>
	</symbol>

	<symbol id="studio" viewBox="-110 0 480 480.00004">
		<path d="m167.882812 179.3125 50.34375 50.34375 11.3125-11.3125-54.253906-54.253906c.800782-2.667969.800782-5.511719 0-8.179688l5.085938-5.078125 14.824218 14.824219c3.125 3.121094 8.1875 3.121094 11.3125 0l24-24c3.125-3.125 3.125-8.1875 0-11.3125l-32-32c-1.5625-1.550781-3.695312-2.382812-5.894531-2.296875l-4.898437-8.167969c-.335938-.558594-.742188-1.074218-1.207032-1.535156-9.75-9.75-25.558593-9.75-35.3125 0-9.75 9.75-9.75 25.5625 0 35.3125.460938.460938.976563.863281 1.535157 1.199219l8.167969 4.90625c-.085938 2.195312.746093 4.332031 2.296874 5.894531l5.855469 5.855469-5.078125 5.089843c-2.667968-.800781-5.511718-.800781-8.175781 0l-41.296875-41.296874c5.175781-3.476563 11.054688-5.773438 17.214844-6.730469 3.519531-.511719 6.277344-3.285157 6.769531-6.804688l.566406-4.058593c2.300781-17.890626 15.226563-32.597657 32.671875-37.175782l10.144532-2.589844c2.769531-.710937 4.949218-2.84375 5.722656-5.59375.769531-2.753906.011718-5.707031-1.984375-7.75-20.15625-20.855468-47.921875-32.6210932-76.921875-32.601562-26.050782-.0234375-51.210938 9.5-70.71875 26.769531l-16.425782-16.425781-11.3125 11.3125 16.523438 16.519531c-37.472656 44.257813-35.34375 109.699219 4.925781 151.425781 1.5 1.539063 3.5625 2.40625 5.710938 2.398438.714843 0 1.425781-.097656 2.113281-.28125 2.808594-.765625 4.976562-2.996094 5.664062-5.824219l2.542969-10.398437c4.074219-17.507813 18.40625-30.769532 36.175781-33.472656l4-.574219c3.523438-.515625 6.28125-3.292969 6.769532-6.816407 1.03125-7.351562 3.859375-14.332031 8.230468-20.328124l41.601563 41.597656c-.378906 1.335937-.582031 2.710937-.601563 4.097656.019532 5.691406 3.066407 10.941406 8 13.777344v58.222656h-16v16h16v80h-16v16h16v44.246094l-93.125 77.601562 10.253907 12.304688 36.175781-30.152344h46.695312v32h16v-32h46.699219l36.175781 30.152344 10.253907-12.304688-93.128907-77.601562zm45.65625-43.3125-12.6875 12.6875-20.6875-20.6875 12.6875-12.6875zm-51.03125-38.335938c3.277344-3.273437 8.503907-3.519531 12.074219-.566406l5.199219 8.664063-9.167969 9.167969-8.664062-5.203126c-2.949219-3.5625-2.707031-8.785156.558593-12.0625zm-82.574218 28.800782c-21.757813 3.867187-39.605469 19.425781-46.402344 40.457031-26.730469-38.03125-22.722656-89.675781 9.554688-123.128906 31.960937-33.089844 83.582031-37.152344 120.328124-9.464844-21.128906 7.234375-36.519531 25.558594-40 47.617187-21.574218 5.722657-38.269531 22.816407-43.480468 44.519532zm44.445312 305.535156 27.503906-22.921875v22.921875zm71.007813 0h-27.503907v-22.921875zm0 0"/>
	</symbol>

	<symbol id="tshirt" viewBox="0 0 511.999 511.999">
		<path d="M508.666,125.502L405.483,46.127c-5.971-4.597-12.761-8.019-20.008-10.083l-48.208-13.775l-15.5-15.5
			c-2.872-2.884-7.384-3.331-10.767-1.067c-16.624,9.994-35.605,15.389-55,15.633c-19.386-0.302-38.353-5.693-55-15.633
			c-3.383-2.26-7.892-1.813-10.767,1.067l-15.5,15.5l-48.208,13.775c-7.248,2.064-14.037,5.486-20.008,10.083L3.333,125.502
			c-3.559,2.737-4.39,7.764-1.9,11.5l68.267,102.4c1.325,1.992,3.427,3.335,5.792,3.7c2.363,0.359,4.769-0.281,6.642-1.766
			l28.8-23.042v280.908c-0.001,2.264,0.897,4.435,2.498,6.035s3.772,2.499,6.035,2.498h273.067c2.264,0.001,4.435-0.897,6.035-2.498
			c1.601-1.601,2.499-3.772,2.498-6.035V218.294l28.8,23.042c1.869,1.493,4.278,2.134,6.642,1.767c2.364-0.368,4.464-1.71,5.792-3.7
			l68.267-102.4C513.056,133.266,512.225,128.239,508.666,125.502z M384,490.669H256H128v-17.067h256V490.669z M433.266,222.194
			l-16.31-13.051l42.411-63.607c2.587-3.92,1.519-9.194-2.389-11.8c-3.908-2.605-9.187-1.563-11.811,2.333l-41.586,62.372
			l-5.714-4.572c-2.562-2.049-6.073-2.449-9.03-1.027s-4.838,4.413-4.837,7.694v256H128v-256c0-3.281-1.88-6.272-4.837-7.693
			c-2.957-1.422-6.467-1.023-9.03,1.027l-5.714,4.572l-41.586-62.372c-2.634-3.869-7.893-4.894-11.787-2.298
			c-3.894,2.596-4.971,7.845-2.412,11.764l42.411,63.607l-16.311,13.051l-58.675-88.025l96.859-74.508
			c4.265-3.284,9.115-5.727,14.292-7.2l50.333-14.383c1.395-0.399,2.666-1.148,3.691-2.175l12.425-12.425
			c17.974,9.569,37.981,14.687,58.342,14.925c20.361-0.238,40.368-5.356,58.342-14.925l12.425,12.425
			c1.026,1.027,2.296,1.776,3.692,2.175l50.333,14.384c5.177,1.473,10.027,3.916,14.292,7.2l96.858,74.508L433.266,222.194z"/>
	</symbol>

	<symbol id="comment" viewBox="-21 -47 682.66669 682">
		<path d="m552.011719-1.332031h-464.023438c-48.515625 0-87.988281 39.464843-87.988281 87.988281v283.972656c0 48.414063 39.300781 87.816406 87.675781 87.988282v128.863281l185.191407-128.863281h279.144531c48.515625 0 87.988281-39.472657 87.988281-87.988282v-283.972656c0-48.523438-39.472656-87.988281-87.988281-87.988281zm50.488281 371.960937c0 27.835938-22.648438 50.488282-50.488281 50.488282h-290.910157l-135.925781 94.585937v-94.585937h-37.1875c-27.839843 0-50.488281-22.652344-50.488281-50.488282v-283.972656c0-27.84375 22.648438-50.488281 50.488281-50.488281h464.023438c27.839843 0 50.488281 22.644531 50.488281 50.488281zm0 0"/>
		<path d="m171.292969 131.171875h297.414062v37.5h-297.414062zm0 0"/>
		<path d="m171.292969 211.171875h297.414062v37.5h-297.414062zm0 0"/>
		<path d="m171.292969 291.171875h297.414062v37.5h-297.414062zm0 0"/>
	</symbol>

	<symbol id="location" viewBox="0 0 512 512">
		<path d="M256,0C161.896,0,85.333,76.563,85.333,170.667c0,28.25,7.063,56.26,20.49,81.104L246.667,506.5
			c1.875,3.396,5.448,5.5,9.333,5.5s7.458-2.104,9.333-5.5l140.896-254.813c13.375-24.76,20.438-52.771,20.438-81.021
			C426.667,76.563,350.104,0,256,0z M256,256c-47.052,0-85.333-38.281-85.333-85.333c0-47.052,38.281-85.333,85.333-85.333
			s85.333,38.281,85.333,85.333C341.333,217.719,303.052,256,256,256z"/>
	</symbol>


</svg>